HIERARCHY
ROOT mixamorig:Hips
{
	OFFSET 0.000000 201.639420 0.000000
	CHANNELS 6 Xposition Yposition Zposition Xrotation Yrotation Zrotation
	JOINT mixamorig:Spine
	{
		OFFSET 0.006200 19.524994 -2.481800
		CHANNELS 3 Xrotation Yrotation Zrotation
		JOINT mixamorig:Spine1
		{
			OFFSET -0.000900 22.835007 -2.825400
			CHANNELS 3 Xrotation Yrotation Zrotation
			JOINT mixamorig:Spine2
			{
				OFFSET -0.020600 26.552490 -3.193300
				CHANNELS 3 Xrotation Yrotation Zrotation
				JOINT mixamorig:Neck
				{
					OFFSET -0.060000 30.701813 1.352200
					CHANNELS 3 Xrotation Yrotation Zrotation
					JOINT mixamorig:Head
					{
						OFFSET -0.087200 22.547607 3.670900
						CHANNELS 3 Xrotation Yrotation Zrotation
						JOINT mixamorig:HeadTop_End
						{
							OFFSET -0.830600 40.355194 7.893500
							CHANNELS 3 Xrotation Yrotation Zrotation
							End Site
							{
								OFFSET 0.000000 30.592346 0.000000
							}
						}
						JOINT mixamorig:RightEye
						{
							OFFSET -6.302100 18.118591 16.197100
							CHANNELS 3 Xrotation Yrotation Zrotation
							End Site
							{
								OFFSET 0.000000 30.592346 0.000000
							}
						}
						JOINT mixamorig:LeftEye
						{
							OFFSET 6.741500 18.382690 16.401899
							CHANNELS 3 Xrotation Yrotation Zrotation
							End Site
							{
								OFFSET 0.000000 30.592346 0.000000
							}
						}
					}
				}
				JOINT mixamorig:LeftShoulder
				{
					OFFSET 11.924900 18.230499 1.425400
					CHANNELS 3 Xrotation Yrotation Zrotation
					JOINT mixamorig:LeftArm
					{
						OFFSET 25.435989 -0.697632 -5.229300
						CHANNELS 3 Xrotation Yrotation Zrotation
						JOINT mixamorig:LeftForeArm
						{
							OFFSET 54.684776 0.000000 0.000000
							CHANNELS 3 Xrotation Yrotation Zrotation
							JOINT mixamorig:LeftHand
							{
								OFFSET 55.098175 0.000000 0.000000
								CHANNELS 3 Xrotation Yrotation Zrotation
								JOINT mixamorig:LeftHandMiddle1
								{
									OFFSET 23.369751 0.000000 0.000000
									CHANNELS 3 Xrotation Yrotation Zrotation
									JOINT mixamorig:LeftHandMiddle2
									{
										OFFSET 6.378677 0.000000 0.000000
										CHANNELS 3 Xrotation Yrotation Zrotation
										JOINT mixamorig:LeftHandMiddle3
										{
											OFFSET 6.148331 0.000000 0.000000
											CHANNELS 3 Xrotation Yrotation Zrotation
											JOINT mixamorig:LeftHandMiddle4
											{
												OFFSET 6.582504 0.000000 0.000000
												CHANNELS 3 Xrotation Yrotation Zrotation
												End Site
												{
													OFFSET -1.168900 6.395691 1.028606
												}
											}
										}
									}
								}
								JOINT mixamorig:LeftHandThumb1
								{
									OFFSET 7.235672 -3.848206 5.434273
									CHANNELS 3 Xrotation Yrotation Zrotation
									JOINT mixamorig:LeftHandThumb2
									{
										OFFSET 6.568451 -3.792297 3.792300
										CHANNELS 3 Xrotation Yrotation Zrotation
										JOINT mixamorig:LeftHandThumb3
										{
											OFFSET 6.063080 -3.500519 3.500518
											CHANNELS 3 Xrotation Yrotation Zrotation
											JOINT mixamorig:LeftHandThumb4
											{
												OFFSET 4.793182 -2.767334 2.767349
												CHANNELS 3 Xrotation Yrotation Zrotation
												End Site
												{
													OFFSET 0.101639 6.054260 1.275483
												}
											}
										}
									}
								}
								JOINT mixamorig:LeftHandIndex1
								{
									OFFSET 23.101074 -0.309540 4.992809
									CHANNELS 3 Xrotation Yrotation Zrotation
									JOINT mixamorig:LeftHandIndex2
									{
										OFFSET 6.226883 0.000000 0.000000
										CHANNELS 3 Xrotation Yrotation Zrotation
										JOINT mixamorig:LeftHandIndex3
										{
											OFFSET 6.094330 0.000000 0.000000
											CHANNELS 3 Xrotation Yrotation Zrotation
											JOINT mixamorig:LeftHandIndex4
											{
												OFFSET 5.482605 0.000000 0.000000
												CHANNELS 3 Xrotation Yrotation Zrotation
												End Site
												{
													OFFSET -1.427902 5.233032 0.797164
												}
											}
										}
									}
								}
								JOINT mixamorig:LeftHandRing1
								{
									OFFSET 22.299240 0.021149 -3.964172
									CHANNELS 3 Xrotation Yrotation Zrotation
									JOINT mixamorig:LeftHandRing2
									{
										OFFSET 6.321869 0.000000 0.000000
										CHANNELS 3 Xrotation Yrotation Zrotation
										JOINT mixamorig:LeftHandRing3
										{
											OFFSET 5.899796 0.000000 0.000000
											CHANNELS 3 Xrotation Yrotation Zrotation
											JOINT mixamorig:LeftHandRing4
											{
												OFFSET 6.517899 0.000000 0.000000
												CHANNELS 3 Xrotation Yrotation Zrotation
												End Site
												{
													OFFSET -1.637299 6.232208 0.980890
												}
											}
										}
									}
								}
								JOINT mixamorig:LeftHandPinky1
								{
									OFFSET 20.463791 -0.302338 -8.562233
									CHANNELS 3 Xrotation Yrotation Zrotation
									JOINT mixamorig:LeftHandPinky2
									{
										OFFSET 6.908646 0.000000 0.000000
										CHANNELS 3 Xrotation Yrotation Zrotation
										JOINT mixamorig:LeftHandPinky3
										{
											OFFSET 4.622849 0.000000 0.000000
											CHANNELS 3 Xrotation Yrotation Zrotation
											JOINT mixamorig:LeftHandPinky4
											{
												OFFSET 5.216080 0.000000 0.000000
												CHANNELS 3 Xrotation Yrotation Zrotation
												End Site
												{
													OFFSET -0.606308 5.116241 0.814926
												}
											}
										}
									}
								}
							}
						}
					}
				}
				JOINT mixamorig:RightShoulder
				{
					OFFSET -12.001300 18.284088 1.348900
					CHANNELS 3 Xrotation Yrotation Zrotation
					JOINT mixamorig:RightArm
					{
						OFFSET -25.308500 -0.751312 -5.164599
						CHANNELS 3 Xrotation Yrotation Zrotation
						JOINT mixamorig:RightForeArm
						{
							OFFSET -54.684429 0.000000 0.000000
							CHANNELS 3 Xrotation Yrotation Zrotation
							JOINT mixamorig:RightHand
							{
								OFFSET -55.150291 0.000000 0.000000
								CHANNELS 3 Xrotation Yrotation Zrotation
								JOINT mixamorig:RightHandMiddle1
								{
									OFFSET -23.317566 0.000000 0.000000
									CHANNELS 3 Xrotation Yrotation Zrotation
									JOINT mixamorig:RightHandMiddle2
									{
										OFFSET -6.378403 0.000000 0.000000
										CHANNELS 3 Xrotation Yrotation Zrotation
										JOINT mixamorig:RightHandMiddle3
										{
											OFFSET -6.148193 0.000000 0.000000
											CHANNELS 3 Xrotation Yrotation Zrotation
											JOINT mixamorig:RightHandMiddle4
											{
												OFFSET -6.583389 0.000000 0.000000
												CHANNELS 3 Xrotation Yrotation Zrotation
												End Site
												{
													OFFSET 1.171692 6.395905 1.029786
												}
											}
										}
									}
								}
								JOINT mixamorig:RightHandThumb1
								{
									OFFSET -7.190521 -3.860474 5.435846
									CHANNELS 3 Xrotation Yrotation Zrotation
									JOINT mixamorig:RightHandThumb2
									{
										OFFSET -6.567429 -3.791718 3.791708
										CHANNELS 3 Xrotation Yrotation Zrotation
										JOINT mixamorig:RightHandThumb3
										{
											OFFSET -6.062469 -3.500153 3.500166
											CHANNELS 3 Xrotation Yrotation Zrotation
											JOINT mixamorig:RightHandThumb4
											{
												OFFSET -4.792618 -2.767029 2.767022
												CHANNELS 3 Xrotation Yrotation Zrotation
												End Site
												{
													OFFSET -0.100327 6.053253 1.276754
												}
											}
										}
									}
								}
								JOINT mixamorig:RightHandIndex1
								{
									OFFSET -23.048981 -0.310791 4.992554
									CHANNELS 3 Xrotation Yrotation Zrotation
									JOINT mixamorig:RightHandIndex2
									{
										OFFSET -6.227539 0.000000 0.000000
										CHANNELS 3 Xrotation Yrotation Zrotation
										JOINT mixamorig:RightHandIndex3
										{
											OFFSET -6.095047 0.000000 0.000000
											CHANNELS 3 Xrotation Yrotation Zrotation
											JOINT mixamorig:RightHandIndex4
											{
												OFFSET -5.484772 0.000000 0.000000
												CHANNELS 3 Xrotation Yrotation Zrotation
												End Site
												{
													OFFSET 1.420593 5.237305 0.797056
												}
											}
										}
									}
								}
								JOINT mixamorig:RightHandRing1
								{
									OFFSET -22.246323 0.020569 -3.963762
									CHANNELS 3 Xrotation Yrotation Zrotation
									JOINT mixamorig:RightHandRing2
									{
										OFFSET -6.322128 0.000000 0.000000
										CHANNELS 3 Xrotation Yrotation Zrotation
										JOINT mixamorig:RightHandRing3
										{
											OFFSET -5.900024 0.000000 0.000000
											CHANNELS 3 Xrotation Yrotation Zrotation
											JOINT mixamorig:RightHandRing4
											{
												OFFSET -6.518356 0.000000 0.000000
												CHANNELS 3 Xrotation Yrotation Zrotation
												End Site
												{
													OFFSET 1.636398 6.232697 0.982186
												}
											}
										}
									}
								}
								JOINT mixamorig:RightHandPinky1
								{
									OFFSET -20.411011 -0.303314 -8.561701
									CHANNELS 3 Xrotation Yrotation Zrotation
									JOINT mixamorig:RightHandPinky2
									{
										OFFSET -6.907349 0.000000 0.000000
										CHANNELS 3 Xrotation Yrotation Zrotation
										JOINT mixamorig:RightHandPinky3
										{
											OFFSET -4.623840 0.000000 0.000000
											CHANNELS 3 Xrotation Yrotation Zrotation
											JOINT mixamorig:RightHandPinky4
											{
												OFFSET -5.218353 0.000000 0.000000
												CHANNELS 3 Xrotation Yrotation Zrotation
												End Site
												{
													OFFSET 0.602097 5.118835 0.816273
												}
											}
										}
									}
								}
							}
						}
					}
				}
			}
		}
	}
	JOINT mixamorig:LeftUpLeg
	{
		OFFSET 18.168400 -13.561905 -0.039000
		CHANNELS 3 Xrotation Yrotation Zrotation
		JOINT mixamorig:LeftLeg
		{
			OFFSET 0.577358 -80.825211 -3.695000
			CHANNELS 3 Xrotation Yrotation Zrotation
			JOINT mixamorig:LeftFoot
			{
				OFFSET -0.577356 -83.370262 -6.520700
				CHANNELS 3 Xrotation Yrotation Zrotation
				JOINT mixamorig:LeftToeBase
				{
					OFFSET 0.750401 -20.798306 25.135401
					CHANNELS 3 Xrotation Yrotation Zrotation
					JOINT mixamorig:LeftToe_End
					{
						OFFSET -0.000500 0.001200 19.917799
						CHANNELS 3 Xrotation Yrotation Zrotation
						End Site
						{
							OFFSET 0.000000 19.917805 0.000000
						}
					}
				}
			}
		}
	}
	JOINT mixamorig:RightUpLeg
	{
		OFFSET -18.162500 -13.585098 -0.041000
		CHANNELS 3 Xrotation Yrotation Zrotation
		JOINT mixamorig:RightLeg
		{
			OFFSET -0.595024 -80.945297 -3.631900
			CHANNELS 3 Xrotation Yrotation Zrotation
			JOINT mixamorig:RightFoot
			{
				OFFSET 0.595024 -83.218193 -6.561200
				CHANNELS 3 Xrotation Yrotation Zrotation
				JOINT mixamorig:RightToeBase
				{
					OFFSET -0.753601 -20.807106 25.115000
					CHANNELS 3 Xrotation Yrotation Zrotation
					JOINT mixamorig:RightToe_End
					{
						OFFSET 0.000299 0.001700 19.918200
						CHANNELS 3 Xrotation Yrotation Zrotation
						End Site
						{
							OFFSET 0.000000 19.918203 0.000000
						}
					}
				}
			}
		}
	}
}
MOTION
Frames: 4
Frame Time: 0.033333
0.156925 188.113663 -1.371648 -6.078872 -42.947215 -4.018937 5.832625 4.558478 -1.227396 11.836550 9.037612 -3.083972 11.836550 9.037628 -3.083974 -4.303068 -1.272953 0.206312 -6.271935 20.437799 -0.377164 0.000000 0.000000 0.000000 0.000000 0.000000 0.000000 0.000000 0.000000 0.000000 1.392453 -0.696066 -7.877840 -14.260086 2.394325 -63.277092 9.865049 -47.524931 5.927927 16.172828 0.915192 18.795422 1.947852 9.683072 -14.539791 -0.456434 -1.565423 -21.881035 -0.000000 0.000001 -0.000005 0.000003 0.000001 -0.000001 9.163598 4.814105 -5.499031 -0.335360 0.032563 0.783694 -0.000001 0.000005 -0.000009 0.000001 -0.000003 0.000001 -0.902012 -6.980975 -3.808423 0.033410 0.804245 -16.418989 0.000001 -0.000007 -0.000001 0.000000 -0.000001 0.000001 2.605869 14.896813 -31.345268 -0.576853 -2.712379 -32.011533 -0.000009 -0.000003 -0.000001 0.000000 -0.000000 0.000002 4.170590 18.495015 -34.987350 -0.706798 -5.788624 -39.372919 0.000004 0.000002 0.000004 -0.000001 0.000001 0.000002 1.410913 9.461489 9.792747 1.220052 -24.270715 60.532927 -6.660695 41.858405 8.043854 6.225253 12.322337 11.673320 -0.663647 -2.903896 12.731613 -0.660561 1.813445 30.578989 -0.000001 0.000002 -0.000002 0.000001 0.000002 -0.000001 -8.895840 -4.903147 -0.383715 7.904825 -19.192475 -2.856865 0.000007 -0.000003 0.000019 0.000003 -0.000000 -0.000001 -1.085503 -1.215496 4.525247 0.142131 -1.115545 16.942616 -0.000001 -0.000003 0.000005 -0.000001 0.000000 0.000000 2.423619 -7.404571 21.763288 -0.989693 3.764319 37.431137 -0.000001 0.000002 0.000004 -0.000001 0.000002 0.000003 3.481046 -10.055074 24.322744 -1.458327 7.872032 41.091951 0.000003 0.000003 -0.000002 0.000001 0.000000 0.000002 -28.717332 5.478941 13.780877 35.016051 -14.076075 -0.184015 -3.699405 0.649170 -7.937945 -2.319086 -3.216983 0.802958 0.000000 -0.000002 -0.000000 -7.183579 -13.136979 -15.783637 34.238830 -9.302794 -0.414334 -19.369295 -3.705595 16.561583 -1.784982 -0.356725 0.333178 0.000000 0.000002 0.000000 
1.702520 187.948730 -1.385496 -5.786670 -43.591883 -3.821110 5.827769 4.364615 -1.222829 11.815247 8.645759 -3.040903 11.815248 8.645752 -3.040901 -2.854592 -0.882122 -0.548080 -10.241543 20.440926 0.445100 -0.000000 -0.000000 -0.000000 -0.000000 -0.000000 -0.000000 -0.000000 -0.000000 -0.000000 0.672576 -1.417860 -6.919723 -9.222145 4.787566 -65.856896 10.722228 -49.606919 7.614156 17.634915 6.254675 18.160160 1.947858 9.683074 -14.539786 -0.456422 -1.565435 -21.881030 0.000003 0.000000 -0.000007 -0.000001 -0.000000 -0.000001 9.163597 4.814121 -5.499015 -0.335367 0.032546 0.783680 0.000000 0.000005 -0.000012 0.000000 0.000001 0.000000 -0.902001 -6.980954 -3.808408 0.033409 0.804256 -16.418969 0.000000 -0.000006 -0.000004 0.000003 0.000001 0.000001 2.605877 14.896836 -31.345248 -0.576846 -2.712403 -32.011546 -0.000011 -0.000002 -0.000002 0.000003 -0.000000 0.000002 4.170588 18.495008 -34.987316 -0.706801 -5.788612 -39.372906 0.000003 0.000000 0.000003 -0.000001 0.000000 0.000001 1.413607 9.506435 9.767543 1.187869 -24.291971 60.289349 -6.445472 42.302527 7.983370 6.465968 11.661191 10.743271 -0.663646 -2.903898 12.731590 -0.660555 1.813452 30.578972 -0.000001 0.000001 0.000002 0.000001 0.000000 -0.000000 -8.895848 -4.903146 -0.383716 7.904833 -19.192476 -2.856867 0.000005 -0.000005 0.000020 0.000001 -0.000001 -0.000001 -1.085508 -1.215488 4.525238 0.142129 -1.115550 16.942614 -0.000000 -0.000003 0.000005 -0.000000 0.000001 -0.000000 2.423619 -7.404567 21.763259 -0.989683 3.764327 37.431137 0.000000 0.000006 -0.000002 -0.000001 0.000002 0.000007 3.481039 -10.055062 24.322710 -1.458316 7.872014 41.091968 0.000004 0.000001 -0.000003 0.000000 0.000001 -0.000001 -29.325069 5.253870 13.354100 35.478198 -13.087671 -0.091281 -3.615172 0.647049 -7.809852 -2.319078 -3.216970 0.802952 0.000000 0.000004 0.000000 -8.271341 -12.035028 -15.934860 34.899296 -9.718469 -0.671854 -19.031192 -3.645453 16.892250 -1.831933 -0.303331 0.449136 -0.000000 0.000002 0.000000 
3.721378 187.284622 -1.678689 -3.767377 -44.333296 -2.503839 5.778067 4.164709 -1.180838 11.701800 8.241629 -2.923585 11.701794 8.241627 -2.923585 0.357938 -0.623888 -2.425564 -17.205566 20.340209 2.062380 0.000001 0.000000 -0.000000 0.000001 0.000000 -0.000000 0.000001 0.000000 -0.000000 -0.290057 -2.202573 -7.412578 -3.576426 7.273193 -66.898780 12.837189 -52.419468 9.445911 18.793117 9.693965 17.501902 1.947855 9.683064 -14.539798 -0.456425 -1.565437 -21.881040 -0.000000 0.000003 -0.000011 0.000004 -0.000000 -0.000002 9.163595 4.814096 -5.499028 -0.335355 0.032565 0.783680 -0.000005 0.000002 -0.000008 0.000001 0.000001 -0.000000 -0.902005 -6.980973 -3.808426 0.033405 0.804251 -16.418971 0.000005 -0.000008 0.000003 -0.000000 0.000002 -0.000002 2.605879 14.896825 -31.345248 -0.576867 -2.712379 -32.011539 -0.000007 -0.000002 -0.000005 -0.000001 0.000001 -0.000003 4.170591 18.495015 -34.987333 -0.706795 -5.788630 -39.372916 0.000000 0.000001 0.000007 -0.000001 -0.000000 0.000001 1.412193 9.719895 9.818065 1.328091 -24.245280 59.635632 -5.955344 43.690340 8.077043 6.419245 11.030854 9.087602 -0.663640 -2.903892 12.731591 -0.660555 1.813444 30.578989 0.000001 -0.000001 0.000001 0.000000 -0.000000 0.000001 -8.895845 -4.903151 -0.383713 7.904820 -19.192475 -2.856872 0.000006 -0.000004 0.000020 0.000000 -0.000000 0.000002 -1.085512 -1.215495 4.525235 0.142135 -1.115543 16.942609 -0.000001 -0.000003 0.000003 -0.000000 -0.000001 -0.000003 2.423608 -7.404567 21.763252 -0.989690 3.764324 37.431165 0.000002 0.000006 0.000002 0.000001 0.000002 -0.000003 3.481032 -10.055064 24.322719 -1.458316 7.872018 41.091955 0.000005 -0.000000 0.000001 -0.000003 0.000001 -0.000003 -31.802717 4.367050 12.792713 36.768541 -11.594174 0.055133 -3.626850 0.709398 -7.781023 -2.319077 -3.216993 0.802949 -0.000000 0.000001 0.000000 -11.449142 -9.685975 -15.534162 37.235698 -11.639344 -1.270868 -19.086527 -3.570063 17.025918 -2.200359 -0.091212 1.437100 0.000000 0.000002 -0.000000 
6.623256 185.581940 -2.480119 0.557117 -45.226886 0.513534 5.778602 3.969632 -1.130701 11.688353 7.839377 -2.784252 11.688350 7.839393 -2.784260 0.579223 0.169381 -4.274632 -23.669196 19.897910 3.788988 0.000000 0.000000 -0.000000 0.000000 0.000000 -0.000000 0.000000 0.000000 -0.000000 -1.392447 -3.159854 -8.814662 2.011832 9.706252 -66.941202 13.971102 -56.682941 10.440189 17.501827 12.883561 19.245337 1.947858 9.683093 -14.539793 -0.456421 -1.565450 -21.881040 0.000004 0.000001 -0.000005 -0.000000 -0.000001 -0.000003 9.163589 4.814114 -5.499025 -0.335363 0.032571 0.783680 -0.000004 0.000003 -0.000006 -0.000001 -0.000001 -0.000002 -0.902005 -6.980964 -3.808420 0.033401 0.804262 -16.418969 -0.000000 -0.000010 0.000006 -0.000002 -0.000001 -0.000002 2.605881 14.896839 -31.345251 -0.576864 -2.712400 -32.011560 -0.000010 -0.000002 -0.000005 -0.000002 -0.000002 0.000003 4.170590 18.495018 -34.987337 -0.706792 -5.788625 -39.372929 0.000001 0.000002 0.000003 -0.000002 0.000000 0.000001 1.419610 9.718978 9.728709 0.410170 -23.099059 58.637529 -4.828519 45.215661 7.968875 6.609251 11.150968 7.185088 -0.663641 -2.903889 12.731601 -0.660557 1.813456 30.578948 0.000001 -0.000003 0.000001 0.000000 0.000001 0.000002 -8.895843 -4.903140 -0.383710 7.904840 -19.192482 -2.856850 0.000007 -0.000003 0.000018 -0.000002 0.000001 0.000001 -1.085507 -1.215486 4.525253 0.142139 -1.115543 16.942616 -0.000000 -0.000001 0.000005 -0.000001 -0.000001 -0.000001 2.423621 -7.404558 21.763269 -0.989697 3.764313 37.431158 0.000000 0.000003 -0.000001 0.000000 0.000000 0.000005 3.481042 -10.055059 24.322717 -1.458321 7.872025 41.091962 0.000003 0.000002 -0.000003 -0.000001 0.000001 -0.000004 -36.941566 2.430248 11.754617 39.520451 -8.976835 0.371936 -3.841183 0.804595 -8.059406 -2.319094 -3.216965 0.802956 0.000000 0.000001 0.000000 -17.829579 -6.103028 -14.760080 42.008556 -14.968993 -2.223284 -19.534875 -3.518913 17.032569 -2.920218 0.488744 3.541413 -0.000000 0.000002 0.000000 
